# xmcd
#
# Track frame offsets:
#	150
#	14405
#	27942
#	44722
#	64170
#	81170
#	95507
#	110070
#	131950
#	147580
#	166360
#	179275
#	190992
#	207402
#	221042
#
# Disc length: 3205 seconds
#
# Revision: 1
# Processed by: cddbd v1.5.1PL2 Copyright (c) Steve Scherf et al.
# Submitted via: audiograbber 1.83.01
#
DISCID=ed0c830f
DTITLE=Roy Herrington - Hip Bone
DYEAR=2003
DGENRE=Blues
TTITLE0=Hip Bone
TTITLE1=Tripe and Onions
TTITLE2=Starlight
TTITLE3=Uzimba
TTITLE4=It's raining
TTITLE5=Bluesman
TTITLE6=Stomp down
TTITLE7=Flame
TTITLE8=Last mile home
TTITLE9=Roadhound
TTITLE10=Detour ahead
TTITLE11=San Antonio Rose
TTITLE12=Things I used to do
TTITLE13=Tripe and Onions #2
TTITLE14=Uzimba #2
EXTD=
EXTT0=
EXTT1=
EXTT2=
EXTT3=
EXTT4=
EXTT5=
EXTT6=
EXTT7=
EXTT8=
EXTT9=
EXTT10=
EXTT11=
EXTT12=
EXTT13=
EXTT14=
PLAYORDER=
